<svg width="177" height="35" viewBox="0 0 177 35" fill="none" xmlns="http://www.w3.org/2000/svg">
<path d="M52.1761 20.731L50.8501 23.227V31.612H46.5601V4.312H50.8501V16.207L56.4661 4.312H60.7561L54.7891 16.48L60.7561 31.612H56.3491L52.1761 20.731Z" fill="#212224"/>
<path d="M61.4605 4.312H74.7205V8.212H70.2355V31.612H65.9455V8.212H61.4605V4.312Z" fill="#212224"/>
<path d="M80.5489 25.333C80.5489 26.321 80.7439 27.023 81.1339 27.439C81.5499 27.829 82.0959 28.024 82.7719 28.024C83.4479 28.024 83.9809 27.829 84.3709 27.439C84.7869 27.023 84.9949 26.321 84.9949 25.333V10.591C84.9949 9.603 84.7869 8.914 84.3709 8.524C83.9809 8.108 83.4479 7.9 82.7719 7.9C82.0959 7.9 81.5499 8.108 81.1339 8.524C80.7439 8.914 80.5489 9.603 80.5489 10.591V25.333ZM76.2589 10.864C76.2589 8.654 76.8179 6.964 77.9359 5.794C79.0539 4.598 80.6659 4 82.7719 4C84.8779 4 86.4899 4.598 87.6079 5.794C88.7259 6.964 89.2849 8.654 89.2849 10.864V25.06C89.2849 27.27 88.7259 28.973 87.6079 30.169C86.4899 31.339 84.8779 31.924 82.7719 31.924C80.6659 31.924 79.0539 31.339 77.9359 30.169C76.8179 28.973 76.2589 27.27 76.2589 25.06V10.864Z" fill="#212224"/>
<path d="M104.602 4.312C106.838 4.312 108.45 4.832 109.438 5.872C110.452 6.912 110.959 8.485 110.959 10.591V11.566C110.959 12.97 110.738 14.127 110.296 15.037C109.854 15.947 109.152 16.623 108.19 17.065C109.36 17.507 110.179 18.235 110.647 19.249C111.141 20.237 111.388 21.459 111.388 22.915V25.138C111.388 27.244 110.842 28.856 109.75 29.974C108.658 31.066 107.033 31.612 104.875 31.612H98.1284V4.312H104.602ZM102.418 19.327V27.712H104.875C105.603 27.712 106.149 27.517 106.513 27.127C106.903 26.737 107.098 26.035 107.098 25.021V22.642C107.098 21.368 106.877 20.497 106.435 20.029C106.019 19.561 105.317 19.327 104.329 19.327H102.418ZM102.418 8.212V15.427H104.095C104.901 15.427 105.525 15.219 105.967 14.803C106.435 14.387 106.669 13.633 106.669 12.541V11.02C106.669 10.032 106.487 9.317 106.123 8.875C105.785 8.433 105.239 8.212 104.485 8.212H102.418Z" fill="#212224"/>
<path d="M132.469 21.433V25.06C132.469 27.27 131.923 28.973 130.831 30.169C129.765 31.339 128.179 31.924 126.073 31.924C123.967 31.924 122.368 31.339 121.276 30.169C120.21 28.973 119.677 27.27 119.677 25.06V10.864C119.677 8.654 120.21 6.964 121.276 5.794C122.368 4.598 123.967 4 126.073 4C128.179 4 129.765 4.598 130.831 5.794C131.923 6.964 132.469 8.654 132.469 10.864V13.516H128.413V10.591C128.413 9.603 128.205 8.914 127.789 8.524C127.399 8.108 126.866 7.9 126.19 7.9C125.514 7.9 124.968 8.108 124.552 8.524C124.162 8.914 123.967 9.603 123.967 10.591V25.333C123.967 26.321 124.162 27.01 124.552 27.4C124.968 27.79 125.514 27.985 126.19 27.985C126.866 27.985 127.399 27.79 127.789 27.4C128.205 27.01 128.413 26.321 128.413 25.333V21.433H132.469Z" fill="#212224"/>
<path d="M139.362 15.817H145.251V19.717H139.362V27.712H146.772V31.612H135.072V4.312H146.772V8.212H139.362V15.817Z" fill="#212224"/>
<path d="M148.182 4.312H161.442V8.212H156.957V31.612H152.667V8.212H148.182V4.312Z" fill="#212224"/>
<path d="M167.739 31.612H163.332V4.312H167.154V21.589L168.714 15.583L172.224 4.312H176.943V31.612H173.082V12.385L171.327 19.093L167.739 31.612Z" fill="#212224"/>
<path d="M22.6083 7.33409C22.2587 7.15887 21.8974 7.00043 21.525 6.86007C20.2567 6.37905 18.8956 6.12154 17.5017 6.1222C16.1058 6.12109 14.7427 6.37891 13.4727 6.86088C12.8566 7.09325 12.2707 7.37509 11.7183 7.70055L11.7196 7.70315C9.24309 9.16413 7.31547 11.5592 6.51249 14.5559C6.30916 15.3148 6.18757 16.0763 6.14232 16.8311L6.14149 16.8311C6.1284 17.054 6.12188 17.2779 6.12207 17.5028C6.12153 18.8961 6.37898 20.2568 6.85981 21.5247C8.04085 24.6584 10.5017 27.0114 13.4715 28.1387C14.7422 28.6211 16.106 28.8791 17.5026 28.8778C17.5375 28.8778 17.5723 28.8776 17.6072 28.8773C18.5448 28.8678 19.4964 28.7413 20.444 28.4874C23.2456 27.7367 25.5213 26.0031 26.9996 23.757L27.0021 23.7585C27.4557 23.0697 27.8391 22.3229 28.1396 21.5257C28.6207 20.2574 28.8783 18.8964 28.8777 17.5026C28.8789 16.106 28.6209 14.7421 28.1385 13.4714C27.9986 13.1028 27.8398 12.7421 27.663 12.3907C25.2324 11.6816 23.3166 9.76509 22.6083 7.33409Z" fill="#212224"/>
<path d="M10.1333 19.4523C10.0901 19.3462 10.0489 19.239 10.01 19.1306C9.95662 18.9825 9.90776 18.8334 9.86339 18.6836L9.86394 18.6834C9.71427 18.1756 9.61218 17.6457 9.56338 17.0987C9.40864 15.3642 9.81273 13.7173 10.6245 12.3404L13.9338 14.5704C13.7642 15.3053 13.7062 16.0816 13.7773 16.8782C13.8137 17.2863 13.8826 17.684 13.9811 18.0688L10.1333 19.4523Z" fill="white"/>
<path d="M14.3944 13.2099L11.8625 10.75C11.9786 10.6357 12.099 10.5246 12.2235 10.4168C12.9273 9.80516 13.7442 9.3196 14.6436 8.99704C15.028 8.8586 15.4198 8.75276 15.8153 8.6788L16.6438 10.4267C16.4931 10.5378 16.3471 10.6548 16.2061 10.7774C15.894 11.0474 15.6104 11.3409 15.356 11.6534L15.3573 11.6547C14.9735 12.1267 14.6492 12.6492 14.3944 13.2099Z" fill="white"/>
<path d="M23.5857 1.08719C21.6903 0.384124 19.64 0 17.5 0C7.83502 0 0 7.83502 0 17.5C0 27.165 7.83502 35 17.5 35C27.165 35 35 27.165 35 17.5C35 15.36 34.6159 13.3097 33.9128 11.4143C33.1909 11.9028 32.3786 12.2677 31.5063 12.4789C32.0686 14.0475 32.375 15.738 32.375 17.5C32.375 25.7152 25.7152 32.375 17.5 32.375C9.28476 32.375 2.625 25.7152 2.625 17.5C2.625 9.28476 9.28476 2.625 17.5 2.625C19.262 2.625 20.9525 2.93137 22.5211 3.49375C22.7323 2.62139 23.0972 1.80909 23.5857 1.08719Z" fill="#212224"/>
<circle cx="29.75" cy="5.25" r="4.375" fill="#4D89EE"/>
</svg>
